<svg width="48" height="48" viewBox="0 0 48 48" fill="none" xmlns="http://www.w3.org/2000/svg">
<g clip-path="url(#clip0_40_2)">
<path d="M24 48C37.2548 48 48 37.2548 48 24C48 10.7452 37.2548 0 24 0C10.7452 0 0 10.7452 0 24C0 37.2548 10.7452 48 24 48Z" fill="#FFEB3B"/>
<path d="M20.8282 21.9982L19.9636 24.4364H21.69L20.8282 21.9982ZM20.8282 21.9982L19.9636 24.4364H21.69L20.8282 21.9982ZM24 11.6154C15.7173 11.6154 9 16.8736 9 23.3645C9 27.5591 11.8064 31.2409 16.0309 33.3164C13.9336 40.5027 12.7009 40.9718 21.3355 34.9254C22.2182 35.0498 23.1086 35.1117 24 35.1109C32.2827 35.1109 39 29.85 39 23.3618C39 16.8736 32.2827 11.6154 24 11.6154ZM15.7064 27.4636C14.2091 27.4636 15.0927 25.3936 14.8418 21.5373C14.2964 21.4445 12.6409 21.9082 12.6409 20.6945C12.6424 20.4708 12.7324 20.2567 12.8914 20.0993C13.0504 19.9418 13.2653 19.8538 13.4891 19.8545C16.6364 20.0809 18.7691 19.2682 18.7691 20.6945C18.7691 21.93 17.1764 21.4336 16.5709 21.5373C16.32 25.38 17.2009 27.4636 15.7064 27.4636ZM23.8445 27.3327C22.5 27.9436 22.4673 26.5664 22.1455 25.9691H19.5082C19.1836 26.58 19.1564 27.9545 17.8091 27.3327C16.7973 26.8691 18.4445 24.5154 19.6745 20.7C19.7533 20.4563 19.9072 20.2439 20.1142 20.0932C20.3213 19.9425 20.5707 19.8613 20.8268 19.8613C21.0829 19.8613 21.3324 19.9425 21.5394 20.0932C21.7464 20.2439 21.9004 20.4563 21.9791 20.7C23.2336 24.5891 24.8618 26.8691 23.8445 27.3327ZM25.4427 27.3327C23.9945 27.3327 24.8755 25.3773 24.6245 20.7054C24.6245 19.5682 26.3918 19.5709 26.3918 20.7054V25.7618C27.2264 25.8736 29.0591 25.35 29.0591 26.55C29.0482 27.8182 27.0791 27.1773 25.4427 27.3382V27.3327ZM33.4445 27.0845L31.4155 24.4118L31.1155 24.7118V26.5909C31.1155 26.7045 31.093 26.8171 31.0493 26.922C31.0057 27.0269 30.9417 27.1221 30.8611 27.2022C30.7805 27.2823 30.6849 27.3457 30.5797 27.3887C30.4745 27.4317 30.3618 27.4534 30.2482 27.4527C28.7455 27.4527 29.6455 25.2873 29.3836 20.7109C29.3851 20.4826 29.4768 20.2641 29.6388 20.1031C29.8008 19.9421 30.0198 19.8518 30.2482 19.8518C31.5545 19.8518 30.99 21.7009 31.1127 22.56C33.5673 20.2173 33.5045 19.9691 34.0091 19.9691C34.7045 19.9691 35.13 20.8336 34.6664 21.2918L32.6945 23.25L34.8245 26.0536C35.52 26.9618 34.1318 28.0009 33.4445 27.09V27.0845ZM19.9636 24.4364H21.69L20.8282 21.9982L19.9636 24.4364ZM20.8282 21.9982L19.9636 24.4364H21.69L20.8282 21.9982ZM20.8282 21.9982L19.9636 24.4364H21.69L20.8282 21.9982Z" fill="#3E2723"/>
</g>
<defs>
<clipPath id="clip0_40_2">
<rect width="48" height="48" fill="white"/>
</clipPath>
</defs>
</svg>
