<svg width="48" height="48" viewBox="0 0 48 48" fill="none" xmlns="http://www.w3.org/2000/svg">
<g clip-path="url(#clip0_4_112)">
<path d="M24 48C37.2548 48 48 37.2548 48 24C48 10.7452 37.2548 0 24 0C10.7452 0 0 10.7452 0 24C0 37.2548 10.7452 48 24 48Z" fill="#39CD00"/>
<path d="M39 23.4545C38.9787 23.7593 38.9395 24.0625 38.8827 24.3627C38.693 25.512 38.3044 26.6195 37.7345 27.6355C37.4618 28.1209 36.15 29.9645 35.7491 30.45C33.5318 33.12 29.8173 36.2018 23.61 39.1991C23.479 39.2623 23.3336 39.2896 23.1886 39.2779C23.0437 39.2663 22.9044 39.2162 22.7852 39.1329C22.6661 39.0495 22.5712 38.9359 22.5106 38.8037C22.4499 38.6716 22.4255 38.5256 22.44 38.3809L22.7536 35.5636C22.7774 35.3481 22.7146 35.132 22.5791 34.9627C22.4436 34.7935 22.2464 34.6849 22.0309 34.6609C19.9659 34.4543 17.9544 33.8808 16.0909 32.9673C11.8364 30.8645 9 27.1091 9 22.83C9 16.2409 15.7145 10.9091 24 10.9091C28.1618 10.9091 31.9255 12.2727 34.6364 14.4355C37.1755 16.4673 38.8009 19.2245 38.9755 22.2845C39.0046 22.6738 39.0128 23.0644 39 23.4545Z" fill="white"/>
<path d="M19.8654 25.47C19.938 25.541 19.9955 25.6259 20.0344 25.7196C20.0733 25.8133 20.0928 25.914 20.0918 26.0155C20.0922 26.1163 20.0726 26.2163 20.0343 26.3096C19.9959 26.4029 19.9395 26.4877 19.8683 26.5591C19.7971 26.6306 19.7125 26.6873 19.6194 26.726C19.5262 26.7646 19.4263 26.7846 19.3254 26.7846H16.2573C16.0535 26.7838 15.8583 26.7026 15.7142 26.5585C15.5702 26.4144 15.4889 26.2192 15.4882 26.0155V20.22C15.4875 20.1186 15.5072 20.018 15.5461 19.9243C15.5849 19.8306 15.6422 19.7457 15.7145 19.6746C15.8219 19.5669 15.9588 19.4936 16.108 19.4639C16.2571 19.4343 16.4117 19.4497 16.552 19.5082C16.6924 19.5667 16.8122 19.6656 16.8961 19.7923C16.9801 19.9191 17.0245 20.068 17.0236 20.22V25.2464H19.3254C19.4258 25.2456 19.5254 25.265 19.6181 25.3034C19.7109 25.3418 19.795 25.3985 19.8654 25.47ZM22.3636 20.0536V26.1818C22.3629 26.3407 22.2995 26.4929 22.1871 26.6053C22.0747 26.7177 21.9225 26.7811 21.7636 26.7818H21.42C21.2609 26.7818 21.1083 26.7186 20.9957 26.6061C20.8832 26.4936 20.82 26.341 20.82 26.1818V20.0536C20.82 19.8945 20.8832 19.7419 20.9957 19.6294C21.1083 19.5169 21.2609 19.4536 21.42 19.4536H21.7554C21.8348 19.4529 21.9136 19.4679 21.9871 19.4977C22.0607 19.5275 22.1277 19.5715 22.1842 19.6273C22.2407 19.683 22.2857 19.7494 22.3164 19.8226C22.3472 19.8957 22.3633 19.9743 22.3636 20.0536ZM29.4873 20.22V25.9827C29.4874 26.19 29.407 26.3892 29.2629 26.5383C29.1189 26.6874 28.9226 26.7747 28.7154 26.7818C28.5213 26.7787 28.3354 26.7028 28.1945 26.5691C28.1673 26.5473 27.1364 25.2055 26.2609 24.0764C25.6064 23.2336 25.0391 22.4973 25.0391 22.4973V26.0127C25.0396 26.1617 24.9967 26.3077 24.9155 26.4326C24.8344 26.5576 24.7186 26.6562 24.5823 26.7164C24.446 26.7766 24.2951 26.7958 24.1481 26.7715C24.0011 26.7473 23.8643 26.6808 23.7545 26.58C23.6754 26.5083 23.6121 26.4207 23.5689 26.323C23.5257 26.2253 23.5034 26.1196 23.5036 26.0127V20.2527C23.5011 20.0502 23.5763 19.8545 23.7138 19.7058C23.8514 19.5572 24.0406 19.4669 24.2427 19.4536C24.3571 19.4518 24.4705 19.4753 24.5747 19.5224C24.6789 19.5696 24.7714 19.6392 24.8454 19.7264C24.8782 19.7646 26.4627 21.8264 27.3545 22.9991C27.7091 23.4573 27.9545 23.7791 27.9545 23.7791V20.2336C27.956 20.0308 28.0372 19.8367 28.1806 19.6933C28.324 19.5499 28.5181 19.4687 28.7209 19.4673C28.9218 19.4672 29.1147 19.5461 29.258 19.6869C29.4014 19.8277 29.4837 20.0191 29.4873 20.22ZM32.1818 23.8827V25.2464H34.4809C34.5856 25.2401 34.6904 25.2554 34.789 25.2911C34.8875 25.3269 34.9778 25.3824 35.0541 25.4543C35.1304 25.5262 35.1912 25.613 35.2328 25.7092C35.2743 25.8055 35.2958 25.9092 35.2958 26.0141C35.2958 26.119 35.2743 26.2227 35.2328 26.319C35.1912 26.4152 35.1304 26.502 35.0541 26.5739C34.9778 26.6458 34.8875 26.7013 34.789 26.7371C34.6904 26.7728 34.5856 26.7881 34.4809 26.7818H31.4045C31.201 26.7811 31.0061 26.6998 30.8625 26.5556C30.7188 26.4114 30.6382 26.2162 30.6382 26.0127V20.22C30.6389 20.017 30.7199 19.8225 30.8634 19.6789C31.007 19.5353 31.2015 19.4544 31.4045 19.4536H34.4727C34.5774 19.4474 34.6822 19.4626 34.7808 19.4984C34.8794 19.5341 34.9696 19.5897 35.0459 19.6616C35.1222 19.7335 35.183 19.8202 35.2246 19.9165C35.2662 20.0128 35.2876 20.1165 35.2876 20.2214C35.2876 20.3262 35.2662 20.43 35.2246 20.5262C35.183 20.6225 35.1222 20.7092 35.0459 20.7811C34.9696 20.8531 34.8794 20.9086 34.7808 20.9444C34.6822 20.9801 34.5774 20.9953 34.4727 20.9891H32.1818V22.3527H34.4809C34.6842 22.3527 34.8791 22.4335 35.0228 22.5772C35.1665 22.7209 35.2473 22.9158 35.2473 23.1191C35.2473 23.3223 35.1665 23.5173 35.0228 23.661C34.8791 23.8047 34.6842 23.8855 34.4809 23.8855L32.1818 23.8827Z" fill="#00C200"/>
</g>
<defs>
<clipPath id="clip0_4_112">
<rect width="48" height="48" fill="white"/>
</clipPath>
</defs>
</svg>
