<svg width="48" height="48" viewBox="0 0 48 48" fill="none" xmlns="http://www.w3.org/2000/svg">
<path d="M24 0C37.3 0 48 10.7 48 24C48 37.3 37.3 48 24 48C10.7 48 0 37.3 0 24C0 10.7 10.7 0 24 0Z" fill="#007FFF"/>
<path fill-rule="evenodd" clip-rule="evenodd" d="M25.5 28.3L21.7 24.2L14.3 28.3L22.5 19.6L26.4 23.7L33.8 19.6L25.5 28.3ZM24 9.60001C15.7 9.60001 9 15.8 9 23.5C9 27.8 11.1 31.8 14.6 34.3V39.6L19.7 36.8C21.1 37.2 22.5 37.4 24 37.4C32.3 37.4 39 31.2 39 23.5C39 15.8 32.3 9.60001 24 9.60001Z" fill="white"/>
</svg>
