<svg width="48" height="48" viewBox="0 0 48 48" fill="none" xmlns="http://www.w3.org/2000/svg">
<path d="M24 0C37.3 0 48 10.7 48 24C48 37.3 37.3 48 24 48C10.7 48 0 37.3 0 24C0 10.7 10.7 0 24 0Z" fill="#52BA00"/>
<path d="M30.9 26.8C30.2 26.7 29.5 26.9 28.9 27.3C28.4 27.7 27.8 27.8 27.2 27.7C24 26.5 21.5 24 20.3 20.8C20.2 20.2 20.3 19.6 20.7 19.1C21.1 18.5 21.3 17.8 21.2 17.1C20.3 15.5 19.2 14 18 12.7C17.6 12.3 17.1 12.1 16.6 12C14.8 11.9 12.5 14.6 12.2 15.1C11.3 16.3 11.3 18 12.2 19.9C14.4 25.2 22.7 33.5 28.1 35.8C28.9 36.2 29.9 36.5 30.8 36.5C31.6 36.5 32.3 36.3 32.9 35.8C33.4 35.5 36.1 33.2 36 31.3C35.9 30.8 35.7 30.3 35.3 29.9C34.6 29.3 31.7 27 30.9 26.8Z" fill="white"/>
<path opacity="0.4" d="M30.3 21.2C30.4 21.6 30.8 21.9 31.2 21.9H31.4C31.9 21.8 32.2 21.3 32.1 20.8C31.6 18.3 29.6 16.3 27.1 15.8C26.6 15.7 26.1 16 26 16.5C25.9 17 26.2 17.5 26.7 17.6C28.6 18.1 30 19.5 30.3 21.2Z" fill="white"/>
<path opacity="0.4" d="M27 11.5C26.5 11.4 26.1 11.8 26 12.3C26 12.8 26.3 13.2 26.8 13.3C30.9 13.7 34.2 17 34.6 21.1C34.7 21.6 35 21.9 35.5 21.9H35.6C36.1 21.8 36.5 21.4 36.4 20.9C35.9 16 32 12 27 11.5Z" fill="white"/>
</svg>
