<svg width="48" height="48" viewBox="0 0 48 48" fill="none" xmlns="http://www.w3.org/2000/svg">
<path d="M24 0C37.3 0 48 10.7 48 24C48 37.3 37.3 48 24 48C10.7 48 0 37.3 0 24C0 10.7 10.7 0 24 0Z" fill="#665CAC"/>
<path d="M33.7 13.4C33 12.8 30.4 10.9 24.5 10.8C24.5 10.8 17.5 10.4 14.2 13.5C12.3 15.4 11.6 18.1 11.6 21.6C11.6 25.1 11.4 31.4 17.6 33.2V35.9C17.6 35.9 17.6 37 18.3 37.2C19.2 37.5 19.7 36.7 20.5 35.8C21 35.3 21.6 34.6 22 34.1C26.2 34.5 29.5 33.6 29.9 33.5C30.8 33.2 35.6 32.6 36.4 26.2C37 19.4 35.8 15.3 33.7 13.4ZM34.4 25.6C33.7 31 29.8 31.3 29.1 31.5C28.8 31.6 25.9 32.3 22.3 32.1C22.3 32.1 19.6 35.3 18.8 36.2C18.5 36.5 18.2 36.4 18.2 35.9C18.2 35.5 18.2 31.5 18.2 31.5C13 30 13.3 24.6 13.3 21.7C13.4 18.8 13.9 16.5 15.5 14.9C18.4 12.3 24.3 12.7 24.3 12.7C29.3 12.7 31.7 14.2 32.2 14.7C34.1 16.3 35.1 20.1 34.4 25.6ZM27.2 21.4C27.2 21.8 26.6 21.9 26.5 21.4C26.4 20.3 25.9 19.7 24.8 19.6C24.4 19.6 24.4 18.9 24.8 18.9C26.4 19.1 27.2 20 27.2 21.4ZM28.3 22C28.3 19.8 27 18.1 24.4 17.9C24 17.9 24 17.2 24.4 17.2C27.4 17.4 29 19.5 28.9 22C29 22.5 28.3 22.5 28.3 22ZM30.7 22.7C30.7 23.1 30 23.2 30 22.7C30 18.5 27.2 16.2 23.8 16.2C23.4 16.2 23.4 15.5 23.8 15.5C27.6 15.6 30.7 18.2 30.7 22.7ZM30.1 27.8C29.5 28.8 28.5 29.9 27.4 29.5C26.3 29.2 23.7 27.9 22.1 26.6C21.3 25.9 20.5 25.2 19.9 24.4C19.4 23.7 18.8 22.9 18.3 22C17.2 20 17 19.1 17 19.1C16.7 18 17.7 17 18.7 16.4C19.2 16.2 19.6 16.2 19.9 16.6C19.9 16.6 20.5 17.4 20.8 17.7C21.1 18.1 21.4 18.6 21.6 18.9C21.9 19.5 21.7 20 21.4 20.3L20.8 20.8C20.5 21 20.5 21.5 20.5 21.5C20.5 21.5 21.4 25 24.8 25.8C24.8 25.8 25.3 25.8 25.5 25.5L26 24.9C26.2 24.6 26.8 24.4 27.4 24.7C28.2 25.1 29.1 25.8 29.8 26.4C30.3 26.8 30.4 27.3 30.1 27.8Z" fill="white"/>
</svg>
