<svg width="48" height="48" viewBox="0 0 48 48" fill="none" xmlns="http://www.w3.org/2000/svg">
<g clip-path="url(#clip0_4_103)">
<path d="M24 48C37.2548 48 48 37.2548 48 24C48 10.7452 37.2548 0 24 0C10.7452 0 0 10.7452 0 24C0 37.2548 10.7452 48 24 48Z" fill="#2DC100"/>
<path d="M34.5545 21C26.5772 16.9473 17.5118 24.3955 21.6572 31.2273C23.5827 34.4346 28.0254 36.4609 33.2809 34.9418C34.3336 35.3482 35.269 36.0109 36.2809 36.5046C36.0081 35.6155 35.7354 34.74 35.4381 33.8673C40.8763 30 39.6872 23.61 34.5545 21ZM28.1863 25.6091C28.1131 25.8023 27.9925 25.974 27.8356 26.1085C27.6787 26.2429 27.4905 26.3357 27.2883 26.3784C27.0861 26.4211 26.8765 26.4123 26.6786 26.3528C26.4808 26.2933 26.301 26.1851 26.1559 26.038C26.0108 25.8908 25.905 25.7096 25.8483 25.511C25.7915 25.3123 25.7856 25.1025 25.8311 24.901C25.8765 24.6994 25.972 24.5125 26.1085 24.3575C26.2451 24.2024 26.4185 24.0842 26.6127 24.0137C27.5318 23.6264 28.5899 24.69 28.1863 25.6091ZM34.1563 25.7264H34.1727C34.0837 25.898 33.9563 26.0466 33.8003 26.1607C33.6443 26.2748 33.464 26.3512 33.2735 26.3839C33.083 26.4167 32.8876 26.4049 32.7024 26.3495C32.5173 26.2941 32.3475 26.1966 32.2063 26.0646C31.9838 25.8032 31.8359 25.4866 31.7781 25.1482C31.9063 24.5727 32.3018 23.9782 32.9399 23.9509C33.8181 23.8282 34.6063 24.9191 34.1563 25.7264Z" fill="white"/>
<path d="M30.7636 19.3309C30.2182 16.6527 28.3472 14.3918 25.9909 13.0882H26.0236C17.6563 8.3591 7.24088 14.9536 9.25361 22.7291C9.79907 25.0364 11.3891 26.9727 13.3254 28.2627C12.9518 29.3291 12.5945 30.3927 12.2591 31.4646C13.4754 30.8264 14.6945 30.1582 15.9136 29.5091C17.3875 29.9871 18.933 30.2067 20.4818 30.1582C18.5727 24.6491 23.4818 18.8127 30.7636 19.3309ZM23.1818 16.1318C23.4173 16.0465 23.6701 16.0199 23.9182 16.0545C24.1663 16.0891 24.4022 16.1837 24.6055 16.3302C24.8087 16.4767 24.973 16.6706 25.0842 16.8951C25.1955 17.1195 25.2502 17.3678 25.2436 17.6182V17.6346C25.2436 18.8373 23.6509 19.59 22.7509 18.7746C21.8182 18.1009 22.0909 16.47 23.1818 16.1318ZM17.6754 17.94C17.46 18.9873 16.0636 19.4918 15.2454 18.7882C14.2963 18.1173 14.5636 16.4564 15.6763 16.1182C16.7672 15.6955 18.0054 16.8082 17.6754 17.94Z" fill="white"/>
</g>
<defs>
<clipPath id="clip0_4_103">
<rect width="48" height="48" fill="white"/>
</clipPath>
</defs>
</svg>
