<svg width="48" height="48" viewBox="0 0 48 48" fill="none" xmlns="http://www.w3.org/2000/svg">
<path d="M24 0C37.3 0 48 10.7 48 24C48 37.3 37.3 48 24 48C10.7 48 0 37.3 0 24C0 10.7 10.7 0 24 0Z" fill="#25D366"/>
<path d="M32.8 15.1C30.5 12.8 27.3 11.5 24 11.5C17.2 11.5 11.6 17.1 11.6 23.9C11.6 26.1 12.2 28.2 13.2 30.1L11.4 36.5L18 34.8C19.8 35.8 21.8 36.3 23.9 36.3C30.7 36.3 36.4 30.7 36.4 23.9C36.5 20.6 35.1 17.5 32.8 15.1ZM24 34.2C22.1 34.2 20.3 33.7 18.8 32.8L18.4 32.6L14.5 33.6L15.5 29.8L15.3 29.4C14.3 27.8 13.7 25.9 13.7 23.9C13.7 18.2 18.3 13.6 24 13.6C26.8 13.6 29.3 14.7 31.3 16.6C33.3 18.5 34.4 21.1 34.4 23.9C34.4 29.6 29.7 34.2 24 34.2ZM29.6 26.5C29.3 26.3 27.8 25.6 27.5 25.5C27.2 25.4 27 25.3 26.8 25.7C26.6 26 26 26.7 25.8 26.9C25.6 27.1 25.4 27.1 25.1 27C23.3 26.1 22.1 25.4 20.9 23.3C20.6 22.8 21.2 22.8 21.8 21.6C21.9 21.4 21.8 21.2 21.8 21.1C21.8 21 21.1 19.4 20.8 18.8C20.6 18.2 20.3 18.3 20.1 18.3C19.9 18.3 19.7 18.3 19.5 18.3C19.3 18.3 19 18.4 18.7 18.7C18.4 19 17.6 19.8 17.6 21.3C17.6 22.8 18.7 24.3 18.9 24.5C19.1 24.7 21.1 27.8 24.2 29.2C26.2 30.1 26.9 30.1 27.9 30C28.5 29.9 29.7 29.2 30 28.5C30.3 27.8 30.3 27.2 30.2 27C30.2 26.7 30 26.7 29.6 26.5Z" fill="white"/>
</svg>
