<svg width="48" height="47" viewBox="0 0 48 47" fill="none" xmlns="http://www.w3.org/2000/svg">
<path d="M47.04 23.008C47.136 35.776 36.96 46.144 24.192 46.24C11.424 46.336 1.05602 36.16 0.960024 23.488C0.864024 10.816 11.04 0.352004 23.808 0.160004C23.904 0.160004 24 0.160004 24 0.160004C36.672 0.160004 46.944 10.336 47.04 23.008Z" fill="#008BE6"/>
<path d="M46.08 23.008C45.984 35.104 36.096 44.896 24 44.896V46.816C37.152 46.912 47.904 36.256 48 23.008H46.08ZM24 44.896C11.904 44.896 2.016 35.104 1.92 23.008H0C0.096 36.16 10.848 46.816 24 46.816V44.896ZM1.92 23.008C2.016 10.912 11.904 1.12001 24 1.12001V-0.799988C10.848 -0.799988 0.096 9.76001 0 23.008H1.92ZM24 1.12001C36.096 1.12001 45.984 10.816 46.08 23.008H48C47.904 9.85601 37.248 -0.799988 24 -0.799988V1.12001Z" fill="black" fill-opacity="0.03"/>
<path d="M12.0959 26.656H16.5119C17.2799 26.656 17.7599 27.04 17.8559 27.616C17.9519 28.192 17.5679 28.864 16.9919 28.96C16.8959 28.96 16.7999 28.96 16.6079 28.96C14.9759 28.96 13.3439 28.96 11.7119 28.96C11.2319 28.96 10.7519 28.96 10.2719 28.96C9.40794 29.056 8.73594 28.576 8.63994 27.808C8.54394 27.328 8.73594 26.944 9.11994 26.56C10.6559 24.544 12.1919 22.624 13.8239 20.608L14.1119 20.224C14.0159 20.032 13.8239 20.128 13.7279 20.128H10.4639C10.1759 20.128 9.98394 20.128 9.69594 20.032C9.11994 19.936 8.73594 19.36 8.92794 18.784C9.02394 18.4 9.31194 18.112 9.69594 18.016C9.98394 17.92 10.1759 17.92 10.4639 17.92C12.2879 17.92 14.1119 17.92 15.8399 17.92C16.1279 17.92 16.5119 17.92 16.7999 18.016C17.3759 18.208 17.7599 18.784 17.5679 19.36C17.5679 19.456 17.5679 19.456 17.4719 19.552C17.1839 20.128 16.8959 20.608 16.5119 21.088L12.4799 26.176C12.3839 26.368 12.1919 26.56 12.0959 26.656Z" fill="white"/>
<path d="M23.808 21.376C24 21.088 24.384 20.8 24.768 20.704C25.44 20.512 26.112 20.896 26.304 21.568C26.304 21.664 26.304 21.76 26.304 21.856C26.304 23.872 26.304 25.888 26.304 27.904C26.304 28.384 25.92 28.864 25.44 29.056C24.96 29.248 24.384 29.056 24 28.672C23.808 28.48 23.808 28.384 23.52 28.576C22.656 29.248 21.504 29.44 20.448 29.056C18.816 28.576 17.76 27.04 17.664 25.408C17.376 23.68 18.144 21.856 19.68 20.992C21.024 20.128 22.656 20.32 23.808 21.376ZM20.256 25.024C20.256 25.504 20.448 25.888 20.64 26.272C21.216 27.04 22.272 27.136 22.944 26.656C23.04 26.56 23.136 26.464 23.328 26.272C23.904 25.408 23.904 24.352 23.328 23.488C23.04 23.104 22.56 22.816 22.08 22.816C20.928 22.816 20.16 23.68 20.256 25.024ZM30.816 25.12C30.72 22.72 32.544 20.704 34.848 20.608C37.152 20.512 39.264 22.336 39.36 24.64C39.552 26.944 37.92 28.96 35.616 29.248H35.52C33.312 29.536 31.2 28 30.912 25.792C30.816 25.6 30.816 25.408 30.816 25.12ZM33.312 24.928C33.312 25.408 33.408 25.888 33.792 26.368C34.368 27.136 35.424 27.232 36.096 26.656C36.192 26.56 36.288 26.464 36.384 26.368C36.96 25.504 36.96 24.352 36.384 23.584C36.096 23.2 35.616 22.912 35.232 22.912C34.272 22.912 33.408 23.68 33.408 24.64C33.312 24.736 33.312 24.832 33.312 24.928ZM29.856 23.104C29.856 24.64 29.856 26.272 29.856 27.808C29.856 28.48 29.28 29.152 28.608 29.152C28.512 29.152 28.32 29.152 28.224 29.152C27.648 28.96 27.264 28.48 27.36 27.808V19.744C27.36 19.264 27.36 18.784 27.36 18.304C27.264 17.632 27.84 16.96 28.512 16.96C29.184 16.864 29.856 17.44 29.856 18.112C29.856 18.208 29.856 18.304 29.856 18.304C29.856 19.936 29.856 21.568 29.856 23.104Z" fill="white"/>
</svg>
