<svg width="50" height="42" viewBox="0 0 50 42" fill="none" xmlns="http://www.w3.org/2000/svg">
<path d="M49.9764 22.5305C50.0561 24.4361 49.3768 26.2954 48.0873 27.7007C46.7979 29.106 45.0037 29.9424 43.0983 30.0265C42.9869 30.0317 42.8757 30.0343 42.7647 30.0343C42.2584 30.0339 41.7537 29.9791 41.2591 29.8709C39.7918 32.1365 37.8677 34.0709 35.6099 35.5503C33.3522 37.0297 30.8105 38.0217 28.1475 38.4626C27.8325 39.388 27.2041 40.1742 26.371 40.6854C25.5378 41.1965 24.5522 41.4006 23.5846 41.2621C22.6169 41.1237 21.7281 40.6516 21.0716 39.9273C20.4152 39.2031 20.0324 38.2722 19.9895 37.2957C19.9465 36.3191 20.2462 35.3583 20.8365 34.5792C21.4269 33.8001 22.2709 33.2518 23.2226 33.029C24.1744 32.8062 25.1741 32.923 26.0489 33.3591C26.9237 33.7952 27.6187 34.5232 28.0136 35.4173C31.7628 34.724 35.1498 32.7369 37.5843 29.8026C40.0188 26.8683 41.3464 23.1727 41.3357 19.3599C41.3357 10.3524 34.0076 3.0242 25 3.0242C15.9924 3.0242 8.66426 10.3524 8.66426 19.3599C8.66377 22.1452 9.37561 24.8844 10.7321 27.317C10.7781 27.3973 10.8126 27.4836 10.8346 27.5735C10.9657 27.9376 10.9517 28.3383 10.7955 28.6924C10.6394 29.0465 10.3531 29.3271 9.99582 29.476C9.12107 29.8441 8.18156 30.0337 7.23251 30.0336C7.12081 30.0336 7.00888 30.031 6.89672 30.0258C4.99216 29.9407 3.19908 29.1037 1.91066 27.6986C0.622236 26.2934 -0.0563802 24.4346 0.0236121 22.5298C0.0557695 21.7702 0.0378259 21.0925 0.0202855 20.4372C0.00395481 19.8201 -0.0130815 19.182 0.0149428 18.5162C0.0985798 16.6564 0.898608 14.901 2.24746 13.6178C3.59632 12.3347 5.38937 11.6232 7.25105 11.6324C10.2406 4.79246 17.0705 0 25 0C32.9295 0 39.7595 4.79245 42.749 11.6325C44.6109 11.6219 46.4046 12.3328 47.7536 13.616C49.1027 14.8992 49.9024 16.655 49.985 18.5151C50.0131 19.1819 49.9961 19.8199 49.9796 20.437C49.9623 21.0924 49.9442 21.7704 49.9764 22.5305ZM37.682 19.3599C37.6813 21.3028 37.2343 23.2196 36.3756 24.9624C35.5169 26.7053 34.2693 28.2276 32.7292 29.412C31.1891 30.5964 29.3975 31.4113 27.4926 31.7938C25.5878 32.1763 23.6205 32.1161 21.7425 31.618L16.6093 34.5825C16.3503 34.732 16.0528 34.8014 15.7544 34.7819C15.4559 34.7624 15.17 34.6547 14.9327 34.4727C14.6954 34.2906 14.5174 34.0423 14.4213 33.759C14.3252 33.4758 14.3152 33.1704 14.3926 32.8816L15.7045 27.9876C13.5319 25.6393 12.3231 22.5591 12.3185 19.3599C12.3185 12.3652 18.0071 6.67502 25 6.67502C31.9929 6.67502 37.682 12.3652 37.682 19.3599ZM21.4743 19.3599C21.4743 18.9589 21.315 18.5743 21.0314 18.2907C20.7478 18.0071 20.3632 17.8478 19.9622 17.8478H19.9597C19.6607 17.8484 19.3686 17.9376 19.1204 18.104C18.8721 18.2705 18.6787 18.5069 18.5647 18.7832C18.4507 19.0596 18.4211 19.3635 18.4798 19.6567C18.5384 19.9498 18.6827 20.219 18.8943 20.4302C19.1058 20.6413 19.3753 20.7851 19.6685 20.8432C19.9618 20.9013 20.2657 20.8712 20.5418 20.7567C20.8179 20.6421 21.0539 20.4483 21.2199 20.1997C21.386 19.9511 21.4746 19.6589 21.4746 19.3599H21.4743ZM26.5124 19.3599C26.5123 19.3104 26.5096 19.261 26.5043 19.2118C26.4996 19.1623 26.4922 19.1132 26.4823 19.0646C26.4732 19.0161 26.4611 18.9683 26.4459 18.9214C26.4319 18.8741 26.4147 18.8277 26.3966 18.7813C26.3784 18.7349 26.3563 18.6916 26.3331 18.6482C26.31 18.6047 26.2848 18.5623 26.2575 18.5212C26.2299 18.4798 26.2003 18.4397 26.1687 18.4013C26.1376 18.3627 26.1043 18.326 26.069 18.2914C26.0347 18.2561 25.9974 18.2228 25.9591 18.1906C25.9207 18.1603 25.8803 18.1301 25.839 18.1029C25.798 18.0755 25.7557 18.0503 25.7121 18.0273C25.6687 18.0041 25.6234 17.9829 25.5779 17.9638C25.5325 17.9448 25.4861 17.9283 25.4389 17.9144C25.3446 17.8841 25.2472 17.8645 25.1486 17.8559C25.0005 17.8416 24.8511 17.8488 24.705 17.8771C24.6564 17.887 24.6083 17.8995 24.561 17.9144C24.5137 17.9282 24.4673 17.9447 24.4219 17.9638C24.3765 17.9829 24.3311 18.0041 24.2878 18.0273C24.2445 18.0505 24.2021 18.0757 24.1607 18.1029C24.0779 18.1578 24.001 18.221 23.9309 18.2914C23.8956 18.3261 23.8622 18.3628 23.831 18.4013C23.7998 18.4397 23.7706 18.4798 23.7434 18.5212C23.7157 18.5622 23.6902 18.6046 23.6668 18.6482C23.6436 18.6914 23.6227 18.7359 23.6042 18.7813C23.5851 18.8271 23.5683 18.8739 23.5538 18.9214C23.5398 18.9678 23.5277 19.0162 23.5176 19.0646C23.5077 19.1132 23.5002 19.1623 23.4954 19.2118C23.4904 19.2611 23.4883 19.3105 23.4883 19.3599C23.4883 19.4093 23.4904 19.4597 23.4954 19.5091C23.5003 19.5582 23.5078 19.607 23.5176 19.6553C23.5277 19.7037 23.5398 19.7521 23.5538 19.7995C23.5683 19.8466 23.5851 19.8931 23.6042 19.9386C23.6227 19.9844 23.6436 20.0291 23.6668 20.0726C23.6899 20.116 23.7162 20.1583 23.7434 20.1997C23.7706 20.2408 23.7998 20.2805 23.831 20.3186C23.8625 20.3572 23.8958 20.3942 23.9309 20.4295C23.9662 20.4638 24.0025 20.498 24.0418 20.5293C24.0797 20.5608 24.1194 20.5901 24.1607 20.617C24.2021 20.6442 24.2444 20.6704 24.2878 20.6936C24.3753 20.7392 24.4668 20.777 24.561 20.8065C24.6083 20.8206 24.6567 20.8327 24.705 20.8428C24.8022 20.8627 24.9012 20.8725 25.0004 20.872C25.401 20.871 25.7849 20.712 26.069 20.4295C26.1386 20.3588 26.2017 20.2818 26.2575 20.1997C26.2847 20.1583 26.3099 20.116 26.3331 20.0726C26.3563 20.0293 26.3774 19.9839 26.3966 19.9386C26.4157 19.8932 26.4319 19.8458 26.4459 19.7995C26.461 19.7522 26.4731 19.7041 26.4823 19.6553C26.4921 19.607 26.4995 19.5582 26.5043 19.5091C26.5095 19.4595 26.5121 19.4096 26.5121 19.3597L26.5124 19.3599ZM31.5527 19.3599C31.5527 18.9589 31.3934 18.5743 31.1099 18.2907C30.8263 18.0071 30.4417 17.8478 30.0406 17.8478H30.0377C29.7388 17.8484 29.4467 17.9376 29.1984 18.1041C28.9502 18.2706 28.7568 18.507 28.6428 18.7833C28.5288 19.0597 28.4993 19.3636 28.558 19.6567C28.6166 19.9499 28.7609 20.219 28.9725 20.4302C29.184 20.6414 29.4535 20.7851 29.7467 20.8432C30.04 20.9013 30.3438 20.8712 30.62 20.7567C30.8961 20.6421 31.1321 20.4483 31.2981 20.1997C31.4641 19.9511 31.5527 19.6589 31.5527 19.3599Z" fill="white"/>
</svg>
